# xmcd CD database file
#
# Track frame offsets:
#	150
#	13872
#	27780
#	41782
#	54492
#	69240
#	84055
#	97517
#	111145
#	121597
#	134987
#	148510
#	161537
#	174810
#	186845
#	199752
#	213922
#	227495
#	241535
#	253957
#	269007
#	282825
#
# Disc length: 3913 seconds
#
# Revision: 5
# Processed by: cddbd v1.4PL0 Copyright (c) Steve Scherf et al.
# Submitted via: CDex 1.50beta9
#
DISCID=250f4716
DTITLE=Billie Holiday - The legendary masters unissued or rare - cd 1
DYEAR=1900
DGENRE=Jazz
TTITLE0=What a little moonlight can do
TTITLE1=Miss Brown to you
TTITLE2=Twenty-four hours a day
TTITLE3=Yankee Doodle never went to town
TTITLE4=If you were mine
TTITLE5=These n' that n' those
TTITLE6=Spreadin' rhythm around
TTITLE7=Let's call a heart a heart
TTITLE8=Please keep me in your dreams
TTITLE9=I wish i had you
TTITLE10=I'll never fail you
TTITLE11=You're so desirable
TTITLE12=You're gonna see a lot more of me
TTITLE13=Hello my darling
TTITLE14=Let's dream in the moonlight
TTITLE15=More than you know
TTITLE16=Under a blue jungle moon
TTITLE17=Night and day
TTITLE18=What is this going to get us?
TTITLE19=Loveless love
TTITLE20=Georgia on my mind
TTITLE21=Romance in the dark
EXTD=
EXTT0=
EXTT1=
EXTT2=
EXTT3=
EXTT4=
EXTT5=
EXTT6=
EXTT7=
EXTT8=
EXTT9=
EXTT10=
EXTT11=
EXTT12=
EXTT13=
EXTT14=
EXTT15=
EXTT16=
EXTT17=
EXTT18=
EXTT19=
EXTT20=
EXTT21=
PLAYORDER=
